#!OML:ASF I:\Actors\actors\Patient Classification 1\Patient 1\Session 1\Subject1.ASF
:FULLY-SPECIFIED
:DEGREES
656
root 0.655011 17.3658 10.0937 -0.774116 -7.35919 -8.42708
lowerback -6.50319 -0.178637 3.97368
upperback -11.5508 -0.13497 3.0173
thorax -8.57525 -0.258735 0.987618
lowerneck -6.18543 -5.44938 -3.05833
upperneck 10.8984 -8.66058 12.5644
head 4.97903 -3.69193 3.83336
rclavicle -2.14687e-014 8.99501e-015
rhumerus 21.5901 29.0164 -4.13877
rradius 133.336
rwrist 11.6947
rhand -9.40037 -58.8473
rfingers 7.12502
rthumb 16.561 -88.1607
lclavicle -2.14687e-014 8.99501e-015
lhumerus 35.0387 -32.168 -9.97866
lradius 132.679
lwrist 14.1464
lhand -36.4628 3.05698
lfingers 7.12502
lthumb -9.55632 32.8203
rfemur 3.53749 18.9666 28.6522
rtibia 14.3515
rfoot -19.1275 -14.6539
rtoes -7.65418
lfemur 15.4764 -23.1202 -16.8509
ltibia 1.57107
lfoot -17.3627 37.4338
ltoes -5.02423
657
root 0.643492 17.3681 10.0712 -0.465694 -7.14866 -8.56273
lowerback -6.21142 -0.206916 4.01487
upperback -11.1346 -0.17036 3.02139
thorax -8.27478 -0.273101 0.961223
lowerneck -6.23804 -5.31859 -2.95774
upperneck 10.4093 -8.4197 12.5154
head 4.8128 -3.58911 3.81933
rclavicle -2.20651e-014 1.57537e-014
rhumerus 19.8999 33.8136 -7.29989
rradius 134.004
rwrist 14.6925
rhand -10.0282 -58.7257
rfingers 7.12502
rthumb 15.9565 -88.0884
lclavicle -2.20651e-014 1.57537e-014
lhumerus 34.4471 -37.4673 -8.7321
lradius 133.148
lwrist 10.7752
lhand -36.7234 3.66578
lfingers 7.12502
lthumb -9.80781 33.4174
rfemur 3.12385 18.9206 28.7204
rtibia 14.3298
rfoot -18.9957 -14.6752
rtoes -7.35474
lfemur 15.0041 -23.202 -16.3968
ltibia 1.49517
lfoot -17.148 37.3061
ltoes -5.09939
658
root 0.633412 17.3729 10.0435 -0.140893 -6.90376 -8.59279
lowerback -5.83763 -0.148592 4.02748
upperback -10.6993 -0.0904493 2.92881
thorax -8.00056 -0.232252 0.847783
lowerneck -6.40588 -5.22739 -2.74651
upperneck 9.90871 -8.23207 12.3654
head 4.6594 -3.50952 3.74876
rclavicle 1.93815e-014 -5.36719e-015
rhumerus 17.7764 38.5887 -10.7776
rradius 134.04
rwrist 17.0762
rhand -10.5367 -58.5464
rfingers 7.12502
rthumb 15.4668 -87.9477
lclavicle 1.93815e-014 -5.36719e-015
lhumerus 34.2598 -42.6024 -7.30753
lradius 133.03
lwrist 7.94759
lhand -36.8255 4.1377
lfingers 7.12502
lthumb -9.9063 33.8846
rfemur 2.65276 18.8677 28.6425
rtibia 14.3114
rfoot -18.7872 -14.6922
rtoes -6.95485
lfemur 14.4718 -23.4498 -16.1248
ltibia 1.48156
lfoot -16.9454 37.259
ltoes -4.94349
659
root 0.62363 17.3805 10.0099 0.227473 -6.6626 -8.5147
lowerback -5.36096 -0.0696363 3.93137
upperback -10.3057 0.0222614 2.77464
thorax -7.83215 -0.170677 0.731554
lowerneck -6.53212 -5.10673 -2.50243
upperneck 9.43378 -8.02396 12.3038
head 4.50869 -3.41491 3.70305
rclavicle -1.62506e-014 -4.85035e-014
rhumerus 15.2651 42.9792 -14.7835
rradius 133.268
rwrist 19.1001
rhand -11.4638 -58.3473
rfingers 7.12502
rthumb 14.5737 -87.8153
lclavicle -1.62506e-014 -4.85035e-014
lhumerus 34.1435 -47.2551 -5.71059
lradius 132.153
lwrist 5.89193
lhand -38.3868 1.34473
lfingers 7.12502
lthumb -11.4123 31.0142
rfemur 2.07832 18.8174 28.4113
rtibia 14.3122
rfoot -18.5058 -14.6871
rtoes -6.53108
lfemur 13.8799 -23.8338 -16.0117
ltibia 1.4842
lfoot -16.7969 37.3558
ltoes -4.63751
660
root 0.614485 17.3894 9.97077 0.632943 -6.36198 -8.42706
lowerback -4.74898 -0.135404 3.75119
upperback -9.92659 -0.0474623 2.68341
thorax -7.76239 -0.191815 0.733332
lowerneck -6.62823 -4.87028 -2.21842
upperneck 8.86688 -7.65518 12.2659
head 4.31318 -3.24446 3.67043
rclavicle 3.8763e-015 3.37934e-015
rhumerus 13.0832 47.0179 -19.0849
rradius 131.848
rwrist 20.7803
rhand -12.6245 -58.5744
rfingers 7.12502
rthumb 13.4551 -88.1198
lclavicle 3.8763e-015 3.37934e-015
lhumerus 33.4344 -51.6798 -3.68842
lradius 130.51
lwrist 3.03449
lhand -40.9679 -1.86019
lfingers 7.12502
lthumb -13.9007 27.6552
rfemur 1.41281 18.7902 28.169
rtibia 14.3654
rfoot -18.2253 -14.7311
rtoes -6.10046
lfemur 13.2431 -24.2887 -15.8822
ltibia 1.43193
lfoot -16.674 37.4751
ltoes -4.0761
661
root 0.605352 17.3998 9.92655 1.08495 -5.98227 -8.30408
lowerback -4.28451 -0.302784 3.39724
upperback -9.35665 -0.267234 2.6741
thorax -7.39904 -0.268035 0.917174
lowerneck -6.88353 -4.59654 -1.96634
upperneck 8.0689 -7.21196 12.257
head 4.07339 -3.04125 3.6536
rclavicle -2.33572e-014 5.1684e-015
rhumerus 11.7568 50.4204 -23.0338
rradius 129.839
rwrist 22.5174
rhand -13.7638 -59.3288
rfingers 7.12502
rthumb 12.3569 -88.9436
lclavicle -2.33572e-014 5.1684e-015
lhumerus 32.0527 -55.2462 -0.697028
lradius 128.043
lwrist -0.273638
lhand -42.608 -2.82814
lfingers 7.12502
lthumb -15.4808 26.572
rfemur 0.669429 18.7879 27.8829
rtibia 14.4289
rfoot -17.9217 -14.8833
rtoes -5.88376
lfemur 12.5156 -24.7997 -15.7396
ltibia 1.34936
lfoot -16.4608 37.5656
ltoes -3.64677
662
root 0.596352 17.4111 9.8756 1.57155 -5.59489 -8.18428
lowerback -3.95232 -0.38737 2.98751
upperback -8.58158 -0.389275 2.71905
thorax -6.7378 -0.289598 1.18194
lowerneck -7.33218 -4.50056 -2.01434
upperneck 7.07101 -6.97148 12.3507
head 3.83633 -2.94334 3.70033
rclavicle 1.28713e-014 -1.09332e-014
rhumerus 11.0338 52.3917 -26.3994
rradius 126.782
rwrist 24.7055
rhand -15.3568 -58.767
rfingers 7.12502
rthumb 10.8206 -88.4683
lclavicle 1.28713e-014 -1.09332e-014
lhumerus 30.6522 -57.4676 3.01494
lradius 124.818
lwrist -2.87577
lhand -43.8161 -3.96633
lfingers 7.12502
lthumb -16.6442 25.34
rfemur -0.139704 18.8063 27.5771
rtibia 14.4852
rfoot -17.5588 -15.0662
rtoes -5.48305
lfemur 11.7457 -25.477 -15.625
ltibia 1.27787
lfoot -16.097 37.8236
ltoes -3.65182
663
root 0.588512 17.4229 9.81736 2.06205 -5.20054 -8.15232
lowerback -3.2138 -0.345676 2.77947
upperback -7.95438 -0.318782 2.73023
thorax -6.47945 -0.23602 1.30378
lowerneck -7.67707 -4.62259 -2.2034
upperneck 5.94675 -6.99681 12.4409
head 3.5686 -2.98862 3.75476
rclavicle 1.04362e-014 -4.4329e-014
rhumerus 10.5064 54.0067 -29.3571
rradius 123.202
rwrist 27.3848
rhand -16.8226 -58.108
rfingers 7.12502
rthumb 9.40654 -87.8781
lclavicle 1.04362e-014 -4.4329e-014
lhumerus 29.7145 -58.8785 6.79217
lradius 121.002
lwrist -4.35866
lhand -45.9541 -7.02824
lfingers 7.12502
lthumb -18.7015 22.0928
rfemur -0.948433 18.8681 27.3676
rtibia 14.4958
rfoot -17.1528 -15.2898
rtoes -4.77165
lfemur 10.9059 -26.1363 -15.3572
ltibia 1.24698
lfoot -15.6709 38.0748
ltoes -3.64477
664
root 0.58271 17.4353 9.75313 2.54229 -4.80388 -8.20653
lowerback -2.06632 -0.325331 2.76913
upperback -7.51078 -0.25324 2.69123
thorax -6.66061 -0.202649 1.27088
lowerneck -8.01335 -4.63365 -2.26816
upperneck 5.14855 -6.92599 12.5698
head 3.38804 -2.96917 3.80661
rclavicle 3.8266e-015 -4.96962e-015
rhumerus 10.7711 54.5206 -32.0883
rradius 119.114
rwrist 27.7269
rhand -18.2035 -56.2791
rfingers 7.12502
rthumb 8.07393 -86.1048
lclavicle 3.8266e-015 -4.96962e-015
lhumerus 29.0192 -59.91 10.2521
lradius 116.793
lwrist -5.78948
lhand -47.7656 -7.91785
lfingers 7.12502
lthumb -20.4432 21.026
rfemur -1.70718 18.9729 27.26
rtibia 14.424
rfoot -16.756 -15.5852
rtoes -4.21263
lfemur 9.99294 -26.6674 -14.9002
ltibia 1.2303
lfoot -15.217 38.2225
ltoes -3.55498
665
root 0.577933 17.4483 9.6835 3.06786 -4.38796 -8.37694
lowerback -0.842759 -0.392171 2.88112
upperback -7.08808 -0.295735 2.68155
thorax -6.91291 -0.229829 1.20618
lowerneck -8.46854 -4.46892 -2.1735
upperneck 4.68404 -6.67481 12.7068
head 3.30871 -2.84015 3.84314
rclavicle -7.55382e-015 5.76476e-015
rhumerus 12.3584 55.4173 -33.6534
rradius 114.387
rwrist 30.4875
rhand -19.5118 -58.1859
rfingers 7.12502
rthumb 6.81106 -88.0563
lclavicle -7.55382e-015 5.76476e-015
lhumerus 28.313 -60.0303 13.7
lradius 111.815
lwrist -6.95948
lhand -48.7533 -9.99535
lfingers 7.12502
lthumb -21.3921 18.8437
rfemur -2.50043 19.0828 27.2604
rtibia 14.3185
rfoot -16.4087 -15.9219
rtoes -3.7115
lfemur 8.94234 -27.0383 -14.174
ltibia 1.21883
lfoot -14.6592 38.2186
ltoes -3.7414
666
root 0.572812 17.4637 9.60866 3.7465 -3.91282 -8.65306
lowerback 0.360535 -0.41824 3.1276
upperback -6.66055 -0.275278 2.69266
thorax -7.15294 -0.232839 1.08559
lowerneck -9.2056 -4.46818 -2.01494
upperneck 4.16961 -6.63791 12.6719
head 3.26871 -2.81479 3.79813
rclavicle -8.24956e-015 -1.78906e-014
rhumerus 14.4077 55.2277 -34.8413
rradius 109.672
rwrist 30.8979
rhand -20.0042 -57.7634
rfingers 7.12502
rthumb 6.33577 -87.6486
lclavicle -8.24956e-015 -1.78906e-014
lhumerus 28.7377 -59.3486 16.3917
lradius 106.086
lwrist -8.19845
lhand -50.3152 -12.8886
lfingers 7.12502
lthumb -22.8916 15.7726
rfemur -3.4733 19.172 27.3117
rtibia 14.1976
rfoot -16.0008 -16.2831
rtoes -3.25887
lfemur 7.5865 -27.2485 -13.1088
ltibia 1.2593
lfoot -14.0747 38.0171
ltoes -3.94081
667
root 0.568505 17.4843 9.53297 4.57474 -3.40717 -8.91067
lowerback 1.43392 -0.371318 3.44528
upperback -6.23343 -0.155793 2.68096
thorax -7.31976 -0.191173 0.891978
lowerneck -10.1234 -4.62769 -2.01761
upperneck 3.53081 -6.78719 12.6311
head 3.2393 -2.88316 3.76296
rclavicle 1.41137e-014 -3.22031e-014
rhumerus 16.7453 54.3839 -35.7185
rradius 104.794
rwrist 30.7329
rhand -19.8492 -57.4998
rfingers 7.12502
rthumb 6.48544 -87.3805
lclavicle 1.41137e-014 -3.22031e-014
lhumerus 30.6279 -58.2049 17.9525
lradius 99.8493
lwrist -9.75456
lhand -52.882 -14.4676
lfingers 7.12502
lthumb -25.3528 13.8671
rfemur -4.59752 19.2317 27.2593
rtibia 14.0047
rfoot -15.4928 -16.6194
rtoes -2.75421
lfemur 6.04666 -27.5723 -12.0025
ltibia 1.28939
lfoot -13.4436 37.951
ltoes -4.05576
668
root 0.564727 17.5118 9.4597 5.51652 -2.89714 -9.11321
lowerback 2.30059 -0.325423 3.73655
upperback -5.82842 -0.0442181 2.67427
thorax -7.38981 -0.150727 0.714872
lowerneck -10.923 -4.7379 -2.15044
upperneck 2.82975 -6.85106 12.6863
head 3.17241 -2.91437 3.78704
rclavicle -7.20594e-015 2.14687e-014
rhumerus 19.7826 53.2813 -35.9468
rradius 99.7553
rwrist 30.0548
rhand -19.443 -57.4515
rfingers 7.12502
rthumb 6.87749 -87.3198
lclavicle -7.20594e-015 2.14687e-014
lhumerus 33.2786 -56.7092 18.8813
lradius 93.4985
lwrist -10.5191
lhand -55.2105 -15.1399
lfingers 7.12502
lthumb -27.5815 12.8591
rfemur -5.81283 19.3494 27.0865
rtibia 13.7197
rfoot -15.0082 -16.9713
rtoes -1.96948
lfemur 4.44347 -28.0388 -10.9364
ltibia 1.22255
lfoot -12.7572 38.0697
ltoes -4.20877
669
root 0.561024 17.5443 9.38906 6.59526 -2.39496 -9.28456
lowerback 2.97681 -0.28646 3.92842
upperback -5.50211 0.0502655 2.71453
thorax -7.43289 -0.111445 0.642044
lowerneck -11.4902 -4.74188 -2.1904
upperneck 2.07784 -6.7647 12.5921
head 3.03029 -2.88665 3.76628
rclavicle -3.2551e-015 8.74653e-015
rhumerus 23.3806 52.1416 -35.4741
rradius 94.4802
rwrist 29.3436
rhand -19.1871 -57.1612
rfingers 7.12502
rthumb 7.12451 -87.0213
lclavicle -3.2551e-015 8.74653e-015
lhumerus 36.0117 -54.7195 19.9162
lradius 86.6923
lwrist -10.3262
lhand -55.6445 -21.9827
lfingers 7.12502
lthumb -27.9964 5.94919
rfemur -7.12241 19.5575 26.8296
rtibia 13.3172
rfoot -14.4726 -17.403
rtoes -1.26338
lfemur 2.75465 -28.5788 -9.81721
ltibia 1.03071
lfoot -12.1971 38.2806
ltoes -4.02589
